<svg version="1.2" xmlns="http://www.w3.org/2000/svg" viewBox="0 0 24 24" width="24" height="24"><style>.a{fill:#dc342c}.b{fill:#fff}</style><path fill-rule="evenodd" class="a" d="m12 24c-6.6 0-12-5.4-12-12 0-6.6 5.4-12 12-12 6.6 0 12 5.4 12 12 0 6.6-5.4 12-12 12z"/><path fill-rule="evenodd" class="b" d="m5.9 6.8h12.2c0.7 0 1.3 0.6 1.3 1.3v7.8c0 0.7-0.6 1.3-1.3 1.3h-12.2c-0.7 0-1.3-0.6-1.3-1.3v-7.8c0-0.7 0.6-1.3 1.3-1.3zm12.7 9.6l-4.8-4-0.7 0.6c-0.3 0.2-0.7 0.4-1.1 0.4-0.4 0-0.8-0.1-1.1-0.4l-0.7-0.6-4.8 4c0.1 0.1 0.3 0.2 0.4 0.2h12.2c0.2 0 0.3 0 0.5-0.2zm-13.4-0.6l4.5-3.8-4.5-3.8zm0.2-8.2l5 4.2 0.9 0.8c0.2 0.1 0.4 0.2 0.6 0.2 0.2 0 0.5 0 0.7-0.2l0.9-0.8 5-4.2c-0.1-0.1-0.3-0.2-0.5-0.2h-12.2c-0.2 0-0.3 0-0.4 0.2zm13.4 0.6l-4.5 3.8 4.5 3.8z"/></svg>