<svg version="1.2" xmlns="http://www.w3.org/2000/svg" viewBox="0 0 24 24" width="24" height="24"><style>.a{fill:#dc342c}.b{fill:#fff}</style><path fill-rule="evenodd" class="a" d="m12 24c-6.6 0-12-5.4-12-12 0-6.6 5.4-12 12-12 6.6 0 12 5.4 12 12 0 6.6-5.4 12-12 12z"/><path class="b" d="m19.5 7.7h-1.3v-4c0-0.1-0.1-0.3-0.3-0.3h-7c-0.1 0-0.3 0.1-0.3 0.3v4h-1.6c0-0.4-0.2-0.8-0.5-1.1-0.6-0.6-1.6-0.6-2.3 0-0.3 0.3-0.5 0.7-0.5 1.1h-1.3c-0.7 0-1.3 0.6-1.3 1.3v8.6c0 0.7 0.6 1.3 1.3 1.3h1.3c0 0.9 0.7 1.6 1.6 1.6 0.9 0 1.6-0.7 1.6-1.6h10.5c0.7 0 1.3-0.6 1.3-1.3v-8.6c0-0.7-0.6-1.3-1.3-1.3zm-8.3-3.8h6.4v3.8h-6.4zm-6.7 14.5c-0.4 0-0.8-0.4-0.8-0.8v-8.6c0-0.4 0.4-0.8 0.8-0.8h1.3v10.2zm4 0.6c0 0.6-0.5 1.1-1.1 1.1-0.6 0-1.1-0.5-1.1-1.1v-11.3c0-0.6 0.5-1.1 1.1-1.1 0.3 0 0.6 0.1 0.8 0.3 0.2 0.2 0.3 0.5 0.3 0.8zm11.8-1.4c0 0.4-0.4 0.8-0.8 0.8h-10.5v-10.2h10.5c0.4 0 0.8 0.4 0.8 0.8zm-2.1-1.8c0 0.3-0.2 0.5-0.5 0.5-0.3 0-0.5-0.2-0.5-0.5 0-0.3 0.2-0.5 0.5-0.5 0.3 0 0.5 0.2 0.5 0.5zm-3.2 0c0 0.3-0.2 0.5-0.5 0.5-0.3 0-0.5-0.2-0.5-0.5 0-0.3 0.2-0.5 0.5-0.5 0.3 0 0.5 0.2 0.5 0.5zm-3.3 0c0 0.3-0.2 0.5-0.5 0.5-0.3 0-0.5-0.2-0.5-0.5 0-0.3 0.2-0.5 0.5-0.5 0.3 0 0.5 0.2 0.5 0.5zm6.5-2.7c0 0.3-0.2 0.5-0.5 0.5-0.3 0-0.5-0.2-0.5-0.5 0-0.3 0.2-0.5 0.5-0.5 0.3 0 0.5 0.2 0.5 0.5zm-3.2 0c0 0.3-0.2 0.5-0.5 0.5-0.3 0-0.5-0.2-0.5-0.5 0-0.3 0.2-0.5 0.5-0.5 0.3 0 0.5 0.2 0.5 0.5zm-3.3 0c0 0.3-0.2 0.5-0.5 0.5-0.3 0-0.5-0.2-0.5-0.5 0-0.3 0.2-0.5 0.5-0.5 0.3 0 0.5 0.2 0.5 0.5zm6.5-2.4c0 0.1-0.1 0.3-0.3 0.3h-7c-0.1 0-0.3-0.1-0.3-0.3q0-0.3 0.3-0.3h7c0.1 0 0.3 0.1 0.3 0.3z"/></svg>