<svg version="1.2" xmlns="http://www.w3.org/2000/svg" viewBox="0 0 24 24" width="24" height="24"><style>.a{fill:#dc342c}.b{fill:#fff}</style><path fill-rule="evenodd" class="a" d="m12 24c-6.6 0-12-5.4-12-12 0-6.6 5.4-12 12-12 6.6 0 12 5.4 12 12 0 6.6-5.4 12-12 12z"/><path class="b" d="m12 3.1q-1.3 0-2.5 0.5-1.3 0.5-2.2 1.4-0.9 1-1.4 2.2-0.5 1.2-0.5 2.5 0 0.4 0 0.9 0.1 0.4 0.2 0.8 0.1 0.4 0.3 0.8 0.2 0.4 0.5 0.7l5.2 7.8q0.1 0.1 0.2 0.2 0.1 0 0.2 0 0.1 0 0.2 0 0.1-0.1 0.2-0.2l5.2-7.8q0.3-0.3 0.5-0.7 0.2-0.4 0.3-0.8 0.1-0.4 0.2-0.8 0-0.5 0-0.9 0-1.3-0.5-2.5-0.5-1.2-1.4-2.2-0.9-0.9-2.2-1.4-1.2-0.5-2.5-0.5zm0 0.9q1.1 0 2.2 0.4 1 0.5 1.8 1.3 0.8 0.8 1.3 1.8 0.4 1.1 0.4 2.2 0 0.4 0 0.7-0.1 0.4-0.2 0.7-0.1 0.4-0.2 0.7-0.2 0.3-0.4 0.6l-4.9 7.3-4.9-7.3q-0.2-0.3-0.4-0.6-0.1-0.3-0.2-0.7-0.1-0.3-0.2-0.7 0-0.3 0-0.7 0-1.1 0.4-2.2 0.4-1 1.3-1.8 0.8-0.8 1.8-1.3 1.1-0.4 2.2-0.4zm0 2.3c-1.3 0-2.5 0.8-3 2-0.5 1.2-0.2 2.5 0.7 3.4 1 1 2.3 1.2 3.5 0.7 1.2-0.5 2-1.6 2-2.9q0-0.7-0.2-1.2-0.3-0.6-0.7-1.1-0.5-0.4-1.1-0.7-0.6-0.2-1.2-0.2zm0 0.9c0.9 0 1.8 0.6 2.1 1.4 0.4 0.9 0.2 1.8-0.5 2.5-0.6 0.7-1.6 0.9-2.5 0.5-0.8-0.4-1.4-1.2-1.4-2.1q0-0.5 0.2-0.9 0.2-0.4 0.5-0.7 0.3-0.4 0.7-0.5 0.4-0.2 0.9-0.2z"/></svg>