<svg version="1.2" xmlns="http://www.w3.org/2000/svg" viewBox="0 0 24 24" width="24" height="24"><style>.a{fill:#dc342c}.b{fill:#fff}</style><path fill-rule="evenodd" class="a" d="m12 24c-6.6 0-12-5.4-12-12 0-6.6 5.4-12 12-12 6.6 0 12 5.4 12 12 0 6.6-5.4 12-12 12z"/><path class="b" d="m4.5 8.2q0 0.3 0.1 0.6 0 0.3 0.1 0.6 0 0.3 0.1 0.6 0.1 0.3 0.2 0.5 0.3 0.7 0.7 1.4 0.4 0.7 0.8 1.3 0.5 0.7 1 1.3 0.4 0.6 1 1.1 0.5 0.5 1.1 1 0.6 0.5 1.2 0.9 0.6 0.5 1.3 0.8 0.7 0.4 1.4 0.7 0.2 0.1 0.5 0.2 0.3 0.1 0.6 0.1 0.3 0.1 0.6 0.1 0.3 0.1 0.6 0.1h0.2q0.1 0 0.2 0 0.2 0 0.5-0.1 0.3 0 0.6-0.2 0.2-0.1 0.5-0.2 0.2-0.2 0.4-0.4l0.8-0.8q0.2-0.2 0.4-0.5 0.1-0.3 0.1-0.6 0-0.3-0.1-0.5-0.2-0.3-0.4-0.5l-2.2-2.3q-0.2-0.2-0.5-0.3-0.3-0.1-0.6-0.1-0.3 0-0.5 0.1-0.3 0.1-0.5 0.3l-1 1q-0.7-0.2-1.3-0.7-0.7-0.4-1.2-0.9-0.5-0.5-0.9-1.2-0.4-0.6-0.7-1.3l1-1q0.2-0.2 0.3-0.5 0.1-0.2 0.1-0.5 0-0.3-0.1-0.6-0.1-0.3-0.3-0.5l-2.3-2.2q-0.2-0.2-0.5-0.3-0.2-0.2-0.5-0.2-0.3 0-0.6 0.2-0.3 0.1-0.5 0.3l-0.8 0.8q-0.2 0.2-0.4 0.5-0.2 0.2-0.3 0.5-0.1 0.3-0.1 0.6-0.1 0.3-0.1 0.6l0.1 0.2zm1.4-1.8l0.8-0.8q0.1-0.1 0.1-0.1 0.1 0 0.1-0.1 0.1 0 0.1 0 0.1 0 0.2 0 0 0 0.1 0 0 0 0.1 0 0.1 0.1 0.1 0.1 0.1 0 0.1 0.1l2.3 2.2q0 0.1 0.1 0.2 0 0.1 0 0.3 0 0.1 0 0.2-0.1 0.1-0.1 0.2l-1.4 1.4 0.1 0.2q0.3 0.9 0.8 1.7 0.5 0.8 1.1 1.4 0.7 0.7 1.4 1.1 0.8 0.5 1.7 0.8l0.2 0.1 1.4-1.3q0.1-0.1 0.2-0.2 0.1 0 0.2 0 0.2 0 0.3 0 0.1 0.1 0.2 0.2l2.2 2.2q0.1 0 0.1 0.1 0.1 0 0.1 0.1 0 0.1 0 0.1 0 0.1 0 0.1 0 0.1 0 0.2 0 0 0 0.1 0 0-0.1 0.1 0 0-0.1 0.1l-0.8 0.8q-0.1 0.2-0.3 0.3-0.2 0.1-0.4 0.2-0.2 0.1-0.4 0.1-0.2 0-0.5 0h-0.2q-0.2 0-0.5 0-0.2 0-0.5-0.1-0.3 0-0.5-0.1-0.3-0.1-0.5-0.2-0.7-0.3-1.3-0.6-0.6-0.4-1.2-0.8-0.6-0.4-1.1-0.8-0.6-0.5-1.1-1-0.5-0.5-1-1.1-0.5-0.5-0.9-1.1-0.4-0.6-0.7-1.3-0.4-0.6-0.7-1.3-0.1-0.2-0.2-0.5 0-0.2-0.1-0.5 0-0.3-0.1-0.5 0-0.3 0-0.5v-0.2q0-0.3 0-0.5 0.1-0.2 0.1-0.4 0.1-0.2 0.2-0.4 0.1-0.2 0.3-0.3z"/></svg>